<?xml version="1.0" encoding="UTF-8" standalone="no"?>
<!-- Creator: CorelDRAW -->

<svg
   xml:space="preserve"
   width="377.32538"
   height="80.311821"
   version="1.1"
   style="clip-rule:evenodd;fill-rule:evenodd;image-rendering:optimizeQuality;shape-rendering:geometricPrecision;text-rendering:geometricPrecision"
   viewBox="0 0 57.073293 12.148"
   id="svg103"
   sodipodi:docname="LogoEscuela2.svg"
   inkscape:version="1.2.2 (732a01da63, 2022-12-09)"
   xmlns:inkscape="http://www.inkscape.org/namespaces/inkscape"
   xmlns:sodipodi="http://sodipodi.sourceforge.net/DTD/sodipodi-0.dtd"
   xmlns="http://www.w3.org/2000/svg"
   xmlns:svg="http://www.w3.org/2000/svg"><sodipodi:namedview
   id="namedview105"
   pagecolor="#ffffff"
   bordercolor="#666666"
   borderopacity="1.0"
   inkscape:showpageshadow="2"
   inkscape:pageopacity="0.0"
   inkscape:pagecheckerboard="0"
   inkscape:deskcolor="#d1d1d1"
   showgrid="false"
   inkscape:zoom="1.069499"
   inkscape:cx="169.70563"
   inkscape:cy="46.750862"
   inkscape:window-width="1920"
   inkscape:window-height="1017"
   inkscape:window-x="-8"
   inkscape:window-y="-8"
   inkscape:window-maximized="1"
   inkscape:current-layer="_2647282415824" />
 <defs
   id="defs4">
  <style
   type="text/css"
   id="style2">
   <![CDATA[
    .fil0 {fill:none}
    .fil1 {fill:black}
    .fil3 {fill:#101010}
    .fil4 {fill:black;fill-rule:nonzero}
    .fil2 {fill:black;fill-rule:nonzero}
   ]]>
  </style>
 </defs>
 <g
   id="Layer_x0020_1"
   inkscape:label="Layer 1"
   inkscape:groupmode="layer"
   transform="translate(-30.354772,-1.163)">
  <metadata
   id="CorelCorpID_0Corel-Layer" />
  <g
   id="_2647282415824">
   <rect
   class="fil0"
   width="121.006"
   height="14.521"
   id="rect7"
   x="0"
   y="0" />
   <g
   id="g63"
   transform="translate(16.033606)">
    <path
   class="fil1"
   d="M 24.376,3.075 V 1.779 h 0.937 v 0.153 h -0.765 v 0.397 h 0.716 v 0.152 h -0.716 v 0.441 h 0.795 v 0.153 z m 1.137,-0.37 0.143,-0.012 c 0.007,0.057 0.023,0.105 0.047,0.142 0.025,0.037 0.064,0.066 0.116,0.089 0.052,0.023 0.111,0.034 0.177,0.034 0.058,0 0.109,-0.009 0.153,-0.026 0.045,-0.017 0.078,-0.041 0.1,-0.071 0.021,-0.03 0.032,-0.063 0.032,-0.098 0,-0.036 -0.01,-0.068 -0.031,-0.095 C 26.229,2.641 26.194,2.619 26.146,2.601 26.115,2.589 26.047,2.57 25.942,2.544 25.836,2.519 25.762,2.495 25.72,2.473 25.665,2.444 25.624,2.408 25.597,2.365 25.57,2.323 25.557,2.275 25.557,2.222 c 0,-0.058 0.016,-0.112 0.049,-0.162 0.033,-0.051 0.081,-0.089 0.144,-0.115 0.064,-0.026 0.134,-0.04 0.211,-0.04 0.085,0 0.161,0.014 0.226,0.042 0.065,0.027 0.115,0.067 0.15,0.121 0.035,0.053 0.054,0.113 0.057,0.181 L 26.248,2.26 C 26.24,2.187 26.213,2.132 26.168,2.095 26.123,2.058 26.056,2.04 25.968,2.04 c -0.093,0 -0.159,0.017 -0.202,0.05 -0.042,0.034 -0.063,0.075 -0.063,0.122 0,0.041 0.015,0.076 0.045,0.102 0.029,0.027 0.105,0.054 0.229,0.082 0.124,0.028 0.209,0.052 0.255,0.073 0.067,0.031 0.116,0.07 0.148,0.118 0.032,0.047 0.048,0.102 0.048,0.163 0,0.061 -0.018,0.119 -0.053,0.173 C 26.34,2.977 26.29,3.019 26.224,3.05 26.159,3.08 26.085,3.095 26.003,3.095 25.899,3.095 25.811,3.08 25.741,3.049 25.671,3.019 25.616,2.973 25.576,2.912 25.536,2.851 25.514,2.782 25.513,2.705 Z M 27.456,2.672 27.609,2.71 C 27.577,2.835 27.519,2.93 27.436,2.996 27.353,3.062 27.252,3.095 27.132,3.095 27.008,3.095 26.908,3.069 26.83,3.019 26.752,2.968 26.693,2.895 26.653,2.8 26.612,2.704 26.592,2.601 26.592,2.491 c 0,-0.119 0.023,-0.224 0.068,-0.313 0.046,-0.089 0.111,-0.157 0.196,-0.203 0.084,-0.047 0.177,-0.07 0.279,-0.07 0.115,0 0.211,0.03 0.29,0.088 0.078,0.059 0.133,0.141 0.164,0.247 l -0.15,0.036 C 27.412,2.192 27.374,2.131 27.323,2.093 27.272,2.055 27.209,2.036 27.131,2.036 c -0.088,0 -0.161,0.021 -0.221,0.063 -0.059,0.043 -0.101,0.099 -0.125,0.171 -0.024,0.071 -0.036,0.145 -0.036,0.221 0,0.098 0.014,0.183 0.042,0.256 0.029,0.073 0.073,0.127 0.134,0.163 0.06,0.036 0.125,0.054 0.195,0.054 0.085,0 0.157,-0.024 0.216,-0.073 0.059,-0.05 0.099,-0.123 0.12,-0.219 z m 1.095,-0.747 h 0.152 v 0.664 c 0,0.116 -0.013,0.208 -0.039,0.276 -0.027,0.068 -0.074,0.123 -0.142,0.166 -0.068,0.042 -0.158,0.064 -0.269,0.064 -0.107,0 -0.196,-0.019 -0.264,-0.056 C 27.921,3.002 27.872,2.948 27.842,2.878 27.813,2.807 27.798,2.711 27.798,2.589 V 1.925 h 0.153 v 0.664 c 0,0.1 0.009,0.173 0.027,0.22 0.019,0.048 0.051,0.084 0.096,0.11 0.045,0.026 0.101,0.038 0.166,0.038 0.112,0 0.192,-0.025 0.239,-0.076 0.048,-0.05 0.072,-0.148 0.072,-0.292 z m 0.408,1.15 v -1.15 h 0.832 v 0.136 h -0.679 v 0.352 h 0.636 v 0.135 h -0.636 v 0.391 h 0.706 v 0.136 z m 1.062,0 v -1.15 h 0.153 v 1.014 h 0.566 v 0.136 z m 0.774,0 0.442,-1.15 h 0.164 l 0.47,1.15 H 31.698 L 31.564,2.727 h -0.481 l -0.126,0.348 z m 0.332,-0.472 h 0.39 L 31.396,2.284 C 31.36,2.188 31.333,2.108 31.315,2.046 31.3,2.12 31.28,2.193 31.253,2.266 Z m -5.83,2.04 0.172,0.043 c -0.036,0.141 -0.101,0.248 -0.194,0.322 -0.094,0.074 -0.208,0.111 -0.343,0.111 -0.14,0 -0.253,-0.028 -0.341,-0.085 C 24.504,4.977 24.437,4.895 24.392,4.787 24.346,4.679 24.323,4.563 24.323,4.439 c 0,-0.134 0.026,-0.252 0.078,-0.353 0.051,-0.1 0.124,-0.176 0.22,-0.229 0.095,-0.052 0.199,-0.078 0.314,-0.078 0.13,0 0.238,0.033 0.327,0.099 0.088,0.066 0.15,0.159 0.184,0.279 L 25.278,4.196 C 25.248,4.102 25.204,4.034 25.147,3.99 25.09,3.947 25.018,3.926 24.931,3.926 24.832,3.926 24.749,3.95 24.682,3.997 24.615,4.045 24.568,4.109 24.541,4.19 24.514,4.27 24.5,4.353 24.5,4.438 c 0,0.111 0.016,0.207 0.048,0.289 0.032,0.082 0.082,0.144 0.15,0.184 0.068,0.041 0.141,0.061 0.22,0.061 0.096,0 0.177,-0.027 0.244,-0.083 0.067,-0.055 0.112,-0.137 0.135,-0.246 z m 0.321,-0.106 c 0,-0.191 0.051,-0.341 0.153,-0.448 0.103,-0.108 0.235,-0.162 0.398,-0.162 0.106,0 0.201,0.025 0.287,0.076 0.085,0.05 0.15,0.121 0.195,0.212 0.044,0.09 0.067,0.193 0.067,0.308 0,0.117 -0.024,0.222 -0.071,0.313 -0.047,0.092 -0.114,0.162 -0.2,0.21 -0.086,0.047 -0.179,0.071 -0.279,0.071 -0.109,0 -0.205,-0.027 -0.29,-0.079 C 25.792,4.986 25.728,4.914 25.684,4.824 25.64,4.734 25.618,4.638 25.618,4.537 Z m 0.157,0.002 c 0,0.139 0.037,0.248 0.111,0.328 0.075,0.079 0.169,0.119 0.281,0.119 0.115,0 0.209,-0.04 0.283,-0.12 0.074,-0.081 0.111,-0.195 0.111,-0.343 0,-0.094 -0.016,-0.175 -0.048,-0.245 -0.031,-0.07 -0.078,-0.124 -0.139,-0.163 -0.06,-0.038 -0.129,-0.057 -0.205,-0.057 -0.107,0 -0.2,0.036 -0.278,0.111 -0.077,0.074 -0.116,0.197 -0.116,0.37 z m 1.132,0.558 v -1.15 h 0.153 v 1.014 h 0.566 v 0.136 z m 0.854,-0.56 c 0,-0.191 0.051,-0.341 0.154,-0.448 0.102,-0.108 0.234,-0.162 0.397,-0.162 0.106,0 0.202,0.025 0.287,0.076 0.085,0.05 0.15,0.121 0.195,0.212 0.044,0.09 0.067,0.193 0.067,0.308 0,0.117 -0.024,0.222 -0.071,0.313 -0.047,0.092 -0.114,0.162 -0.2,0.21 -0.086,0.047 -0.179,0.071 -0.279,0.071 -0.109,0 -0.205,-0.027 -0.29,-0.079 C 27.935,4.986 27.871,4.914 27.827,4.824 27.783,4.734 27.761,4.638 27.761,4.537 Z m 0.157,0.002 c 0,0.139 0.037,0.248 0.112,0.328 0.074,0.079 0.168,0.119 0.28,0.119 0.115,0 0.209,-0.04 0.283,-0.12 0.074,-0.081 0.111,-0.195 0.111,-0.343 0,-0.094 -0.016,-0.175 -0.048,-0.245 -0.031,-0.07 -0.078,-0.124 -0.138,-0.163 -0.061,-0.038 -0.13,-0.057 -0.206,-0.057 -0.107,0 -0.2,0.036 -0.278,0.111 -0.077,0.074 -0.116,0.197 -0.116,0.37 z m 1.134,0.558 v -1.15 h 0.229 l 0.272,0.814 c 0.025,0.076 0.044,0.133 0.055,0.17 0.013,-0.041 0.034,-0.103 0.062,-0.184 l 0.275,-0.8 h 0.204 v 1.15 H 30.003 V 4.134 L 29.669,5.097 H 29.531 L 29.199,4.118 v 0.979 z m 1.337,0 v -1.15 h 0.431 c 0.088,0 0.159,0.012 0.212,0.035 0.053,0.023 0.094,0.059 0.124,0.107 0.03,0.049 0.046,0.099 0.046,0.152 0,0.049 -0.014,0.096 -0.041,0.139 -0.026,0.043 -0.067,0.078 -0.12,0.105 0.069,0.02 0.123,0.055 0.16,0.104 0.038,0.05 0.056,0.108 0.056,0.175 0,0.053 -0.011,0.104 -0.034,0.15 C 31.2,4.96 31.172,4.996 31.139,5.021 31.105,5.046 31.063,5.065 31.013,5.078 30.962,5.09 30.901,5.097 30.827,5.097 Z M 30.541,4.43 h 0.249 c 0.067,0 0.115,-0.004 0.145,-0.013 0.038,-0.012 0.068,-0.031 0.087,-0.057 0.02,-0.027 0.03,-0.061 0.03,-0.101 0,-0.038 -0.009,-0.072 -0.028,-0.1 C 31.006,4.129 30.98,4.109 30.946,4.099 30.912,4.088 30.853,4.083 30.771,4.083 h -0.23 z m 0,0.531 h 0.286 c 0.049,0 0.084,-0.002 0.104,-0.005 C 30.966,4.949 30.995,4.939 31.019,4.924 31.042,4.91 31.062,4.888 31.077,4.86 31.092,4.832 31.1,4.8 31.1,4.764 31.1,4.721 31.089,4.683 31.067,4.652 31.045,4.62 31.014,4.598 30.975,4.585 30.936,4.572 30.88,4.566 30.807,4.566 h -0.266 z m 0.952,0.136 v -1.15 h 0.152 v 1.15 z m 0.294,0 0.441,-1.15 h 0.164 l 0.471,1.15 H 32.689 L 32.555,4.749 h -0.481 l -0.126,0.348 z m 0.331,-0.472 h 0.391 L 32.388,4.306 C 32.352,4.21 32.325,4.13 32.307,4.068 32.292,4.142 32.272,4.215 32.245,4.287 Z m 0.865,0.472 v -1.15 h 0.156 L 33.743,4.85 V 3.947 h 0.146 v 1.15 H 33.733 L 33.129,4.193 v 0.904 z m 1.035,0 0.442,-1.15 h 0.164 l 0.471,1.15 H 34.921 L 34.787,4.749 H 34.306 L 34.18,5.097 Z M 34.35,4.625 h 0.39 L 34.62,4.306 C 34.584,4.21 34.556,4.13 34.539,4.068 34.524,4.142 34.503,4.215 34.476,4.287 Z m -9.993,2.494 v -1.15 h 0.396 c 0.09,0 0.158,0.006 0.205,0.016 0.066,0.016 0.122,0.043 0.169,0.083 0.06,0.051 0.106,0.116 0.136,0.196 0.03,0.08 0.045,0.171 0.045,0.274 0,0.087 -0.01,0.164 -0.031,0.232 -0.02,0.067 -0.046,0.123 -0.078,0.167 -0.032,0.045 -0.067,0.079 -0.105,0.105 -0.038,0.025 -0.084,0.044 -0.137,0.057 -0.054,0.013 -0.116,0.02 -0.185,0.02 z m 0.152,-0.136 h 0.246 c 0.075,0 0.135,-0.007 0.178,-0.021 0.043,-0.014 0.078,-0.034 0.103,-0.06 0.036,-0.036 0.065,-0.084 0.085,-0.145 0.02,-0.061 0.03,-0.135 0.03,-0.222 0,-0.12 -0.02,-0.212 -0.059,-0.277 C 25.052,6.193 25.004,6.15 24.948,6.128 24.907,6.112 24.841,6.105 24.751,6.105 h -0.242 z m 1.012,0.136 v -1.15 h 0.831 v 0.136 h -0.679 v 0.352 h 0.636 v 0.135 h -0.636 v 0.391 h 0.706 v 0.136 z m 1.616,0 V 5.823 h 0.171 v 1.296 z m 0.456,0 v -1.15 h 0.156 l 0.604,0.903 V 5.969 h 0.146 v 1.15 H 28.343 L 27.739,6.215 v 0.904 z m 1.7,-0.451 V 6.533 L 29.78,6.532 v 0.427 c -0.075,0.059 -0.152,0.104 -0.231,0.134 -0.08,0.031 -0.162,0.046 -0.245,0.046 -0.113,0 -0.216,-0.025 -0.308,-0.073 C 28.904,7.018 28.834,6.948 28.787,6.856 28.74,6.765 28.716,6.662 28.716,6.549 c 0,-0.112 0.024,-0.216 0.071,-0.313 0.046,-0.097 0.114,-0.169 0.202,-0.216 0.087,-0.047 0.189,-0.071 0.303,-0.071 0.083,0 0.158,0.014 0.226,0.041 0.067,0.027 0.119,0.064 0.157,0.112 0.039,0.048 0.068,0.111 0.088,0.189 L 29.625,6.328 C 29.608,6.27 29.587,6.224 29.561,6.19 29.535,6.157 29.499,6.13 29.451,6.11 29.404,6.09 29.351,6.079 29.293,6.079 c -0.07,0 -0.13,0.011 -0.181,0.032 -0.05,0.021 -0.091,0.049 -0.123,0.084 -0.031,0.034 -0.055,0.072 -0.072,0.114 -0.029,0.071 -0.044,0.148 -0.044,0.231 0,0.103 0.018,0.188 0.053,0.257 0.035,0.069 0.087,0.121 0.154,0.154 0.068,0.034 0.139,0.05 0.215,0.05 0.066,0 0.13,-0.012 0.193,-0.038 0.063,-0.025 0.11,-0.052 0.143,-0.081 V 6.668 Z m 0.715,0.451 v -1.15 h 0.831 V 6.105 H 30.16 v 0.352 h 0.636 V 6.592 H 30.16 v 0.391 h 0.706 v 0.136 z m 1.066,0 v -1.15 h 0.156 l 0.604,0.903 V 5.969 h 0.146 v 1.15 H 31.824 L 31.22,6.215 v 0.904 z m 1.188,0 v -1.15 h 0.152 v 1.15 z m 0.424,0 v -1.15 h 0.831 v 0.136 h -0.679 v 0.352 h 0.636 v 0.135 h -0.636 v 0.391 h 0.706 v 0.136 z m 1.07,0 v -1.15 h 0.51 c 0.103,0 0.181,0.01 0.234,0.031 0.053,0.021 0.096,0.057 0.128,0.109 0.032,0.053 0.048,0.111 0.048,0.174 0,0.081 -0.027,0.15 -0.08,0.206 -0.053,0.056 -0.134,0.091 -0.244,0.107 0.04,0.019 0.07,0.038 0.091,0.057 0.045,0.041 0.087,0.092 0.127,0.153 l 0.2,0.313 H 34.578 L 34.426,6.88 C 34.382,6.811 34.345,6.758 34.316,6.721 34.288,6.685 34.262,6.659 34.239,6.644 34.216,6.63 34.193,6.62 34.17,6.614 34.152,6.61 34.124,6.608 34.085,6.608 h -0.177 v 0.511 z m 0.152,-0.642 h 0.328 c 0.069,0 0.124,-0.008 0.163,-0.022 0.039,-0.015 0.069,-0.038 0.089,-0.069 0.02,-0.032 0.031,-0.066 0.031,-0.103 0,-0.055 -0.02,-0.099 -0.06,-0.134 C 34.42,6.114 34.358,6.096 34.272,6.096 h -0.364 z m 1.032,0.642 v -1.15 h 0.152 v 1.15 z M 34.901,5.898 35.005,5.679 h 0.185 l -0.172,0.219 z m 0.333,1.221 0.442,-1.15 h 0.164 l 0.47,1.15 H 36.137 L 36.003,6.771 h -0.481 l -0.126,0.348 z m 0.332,-0.472 h 0.39 L 35.836,6.328 C 35.799,6.232 35.772,6.152 35.754,6.09 35.74,6.164 35.719,6.237 35.692,6.309 Z M 24.285,8.773 24.44,8.752 c 0.004,0.099 0.023,0.167 0.056,0.203 0.033,0.037 0.078,0.055 0.137,0.055 0.043,0 0.08,-0.01 0.111,-0.03 C 24.775,8.961 24.797,8.934 24.808,8.9 24.82,8.866 24.826,8.812 24.826,8.738 V 7.845 h 0.172 v 0.883 c 0,0.109 -0.013,0.193 -0.04,0.252 -0.026,0.059 -0.068,0.105 -0.124,0.136 -0.057,0.031 -0.124,0.047 -0.201,0.047 -0.113,0 -0.2,-0.033 -0.261,-0.098 -0.06,-0.066 -0.089,-0.163 -0.087,-0.292 z m 1.732,-0.782 h 0.152 v 0.664 c 0,0.116 -0.013,0.208 -0.039,0.276 C 26.103,8.999 26.056,9.054 25.988,9.096 25.92,9.139 25.83,9.16 25.719,9.16 25.612,9.16 25.523,9.142 25.455,9.105 25.387,9.068 25.338,9.014 25.308,8.944 25.279,8.873 25.264,8.777 25.264,8.655 V 7.991 h 0.153 v 0.664 c 0,0.099 0.009,0.173 0.027,0.22 0.019,0.048 0.051,0.084 0.096,0.11 0.045,0.026 0.101,0.038 0.166,0.038 0.112,0 0.192,-0.025 0.239,-0.076 0.048,-0.051 0.072,-0.148 0.072,-0.292 z m 0.399,1.15 v -1.15 h 0.152 v 1.014 h 0.566 v 0.136 z m 0.926,0 v -1.15 h 0.152 v 1.15 z m 0.374,-0.56 c 0,-0.191 0.051,-0.341 0.153,-0.448 0.103,-0.108 0.235,-0.162 0.398,-0.162 0.106,0 0.201,0.025 0.287,0.076 0.085,0.05 0.15,0.121 0.194,0.212 0.045,0.09 0.067,0.193 0.067,0.308 0,0.117 -0.023,0.222 -0.07,0.313 -0.047,0.092 -0.114,0.162 -0.2,0.209 C 28.459,9.137 28.366,9.16 28.266,9.16 28.157,9.16 28.061,9.134 27.975,9.082 27.89,9.03 27.825,8.958 27.782,8.868 27.738,8.778 27.716,8.682 27.716,8.581 Z m 0.157,0.002 c 0,0.139 0.037,0.248 0.111,0.328 0.075,0.079 0.168,0.119 0.281,0.119 0.115,0 0.209,-0.04 0.283,-0.12 0.074,-0.081 0.111,-0.195 0.111,-0.343 0,-0.094 -0.016,-0.176 -0.048,-0.245 C 28.58,8.252 28.533,8.198 28.472,8.159 28.411,8.121 28.343,8.101 28.267,8.101 c -0.108,0 -0.2,0.037 -0.278,0.112 -0.078,0.074 -0.116,0.197 -0.116,0.37 z m 2.264,0.05 V 8.481 L 30.685,8.48 v 0.481 c -0.084,0.067 -0.171,0.117 -0.26,0.151 -0.09,0.034 -0.182,0.051 -0.276,0.051 -0.127,0 -0.243,-0.027 -0.347,-0.082 C 29.698,9.027 29.62,8.948 29.566,8.845 29.513,8.742 29.487,8.627 29.487,8.499 c 0,-0.126 0.026,-0.243 0.079,-0.353 0.053,-0.109 0.129,-0.19 0.228,-0.243 0.098,-0.053 0.212,-0.08 0.342,-0.08 0.093,0 0.178,0.015 0.254,0.046 0.075,0.03 0.135,0.072 0.178,0.127 0.043,0.054 0.075,0.124 0.098,0.212 L 30.511,8.25 C 30.492,8.184 30.467,8.132 30.439,8.094 30.41,8.057 30.369,8.027 30.315,8.004 30.261,7.981 30.202,7.97 30.137,7.97 30.058,7.97 29.99,7.982 29.933,8.006 29.876,8.03 29.83,8.061 29.795,8.1 29.76,8.139 29.733,8.181 29.713,8.228 c -0.033,0.08 -0.049,0.167 -0.049,0.261 0,0.115 0.019,0.212 0.059,0.29 0.04,0.077 0.098,0.135 0.174,0.173 0.076,0.037 0.157,0.056 0.242,0.056 0.074,0 0.147,-0.014 0.217,-0.043 0.071,-0.028 0.125,-0.058 0.161,-0.091 V 8.633 Z m 0.659,0.508 0.442,-1.15 h 0.164 l 0.47,1.15 H 31.699 L 31.565,8.793 h -0.481 l -0.126,0.348 z m 0.332,-0.472 h 0.39 L 31.398,8.35 C 31.361,8.254 31.334,8.174 31.316,8.112 31.301,8.186 31.281,8.259 31.254,8.331 Z m 0.868,0.472 v -1.15 h 0.51 c 0.103,0 0.181,0.01 0.234,0.031 0.053,0.021 0.096,0.057 0.128,0.109 0.032,0.053 0.047,0.11 0.047,0.174 0,0.081 -0.026,0.15 -0.079,0.206 -0.053,0.056 -0.134,0.091 -0.244,0.107 0.04,0.019 0.07,0.038 0.091,0.057 0.045,0.041 0.087,0.092 0.127,0.153 l 0.2,0.313 H 32.818 L 32.666,8.902 C 32.622,8.833 32.585,8.78 32.556,8.743 32.527,8.707 32.502,8.681 32.479,8.666 32.456,8.652 32.433,8.642 32.41,8.636 32.392,8.632 32.364,8.63 32.325,8.63 h -0.177 v 0.511 z m 0.152,-0.642 h 0.328 c 0.069,0 0.124,-0.008 0.163,-0.022 0.039,-0.015 0.069,-0.038 0.089,-0.069 0.02,-0.032 0.031,-0.066 0.031,-0.103 0,-0.055 -0.02,-0.099 -0.06,-0.134 C 32.66,8.135 32.598,8.118 32.512,8.118 h -0.364 z m 0.88,0.642 0.441,-1.15 h 0.164 l 0.471,1.15 H 33.93 L 33.796,8.793 h -0.48 L 33.189,9.141 Z M 33.359,8.669 H 33.75 L 33.629,8.35 C 33.593,8.254 33.566,8.174 33.548,8.112 33.533,8.186 33.513,8.259 33.486,8.331 Z m 1.076,0.472 -0.446,-1.15 h 0.165 l 0.299,0.835 c 0.024,0.067 0.044,0.13 0.06,0.188 0.018,-0.062 0.039,-0.125 0.062,-0.188 l 0.311,-0.835 h 0.155 l -0.45,1.15 z m 0.769,0 v -1.15 h 0.152 v 1.15 z m 0.713,0 V 8.127 H 35.538 V 7.991 h 0.912 v 0.136 h -0.381 v 1.014 z m 0.613,-0.56 c 0,-0.191 0.052,-0.341 0.154,-0.448 0.103,-0.108 0.235,-0.162 0.397,-0.162 0.106,0 0.202,0.025 0.287,0.076 0.085,0.05 0.15,0.121 0.195,0.212 0.045,0.09 0.067,0.193 0.067,0.308 0,0.117 -0.023,0.222 -0.07,0.313 -0.047,0.092 -0.114,0.162 -0.2,0.209 C 37.273,9.137 37.18,9.16 37.08,9.16 36.972,9.16 36.875,9.134 36.79,9.082 36.705,9.03 36.64,8.958 36.596,8.868 36.552,8.778 36.53,8.682 36.53,8.581 Z m 0.157,0.002 c 0,0.139 0.038,0.248 0.112,0.328 0.075,0.079 0.168,0.119 0.281,0.119 0.114,0 0.208,-0.04 0.282,-0.12 0.074,-0.081 0.111,-0.195 0.111,-0.343 0,-0.094 -0.016,-0.176 -0.047,-0.245 C 37.394,8.252 37.348,8.198 37.287,8.159 37.226,8.121 37.158,8.101 37.082,8.101 c -0.108,0 -0.201,0.037 -0.278,0.112 -0.078,0.074 -0.117,0.197 -0.117,0.37 z"
   id="path9" />
    <g
   id="g57">
     <g
   id="g31">
      <g
   id="g13">
       <path
   class="fil2"
   d="m 18.247,9.656 c -0.018,0.019 -0.049,0.019 -0.067,0 -0.019,-0.018 -0.019,-0.048 0,-0.067 z M 22.792,5.089 18.247,9.656 18.18,9.589 22.725,5.022 Z M 22.725,5.022 c 0.018,-0.019 0.048,-0.019 0.067,0 0.018,0.018 0.019,0.048 0,0.067 z"
   id="path11" />
      </g>
      <g
   id="g17">
       <path
   class="fil2"
   d="M 21.292,9.632 C 21.287,9.657 21.261,9.674 21.236,9.669 21.21,9.664 21.193,9.639 21.199,9.613 Z M 22.803,2.01 21.292,9.632 21.199,9.613 22.71,1.992 Z M 22.71,1.992 c 0.005,-0.026 0.03,-0.043 0.056,-0.038 0.025,0.005 0.042,0.031 0.037,0.056 z"
   id="path15" />
      </g>
      <g
   id="g21">
       <path
   class="fil2"
   d="M 19.788,9.618 C 19.777,9.642 19.748,9.651 19.725,9.64 19.701,9.628 19.692,9.6 19.703,9.576 Z M 22.801,3.531 19.788,9.618 19.703,9.576 22.716,3.489 Z M 22.716,3.489 c 0.011,-0.024 0.04,-0.033 0.063,-0.022 0.024,0.012 0.033,0.041 0.022,0.064 z"
   id="path19" />
      </g>
      <g
   id="g25">
       <path
   class="fil2"
   d="M 16.705,9.665 C 16.682,9.677 16.653,9.667 16.641,9.644 16.629,9.621 16.639,9.592 16.662,9.58 Z M 22.78,6.61 16.705,9.665 16.662,9.58 22.737,6.525 Z M 22.737,6.525 c 0.023,-0.012 0.052,-0.002 0.064,0.021 0.011,0.023 0.002,0.052 -0.021,0.064 z"
   id="path23" />
      </g>
      <g
   id="g29">
       <path
   class="fil2"
   d="M 15.178,9.657 C 15.152,9.662 15.127,9.646 15.122,9.62 15.117,9.594 15.134,9.569 15.159,9.564 Z m 7.59,-1.511 -7.59,1.511 -0.019,-0.093 7.59,-1.511 z M 22.749,8.053 C 22.775,8.048 22.8,8.065 22.805,8.09 22.81,8.116 22.793,8.141 22.768,8.146 Z"
   id="path27" />
      </g>
     </g>
     <g
   id="g35">
      <path
   class="fil2"
   d="m 18.213,9.67 c -0.026,0 -0.047,-0.021 -0.047,-0.047 0,-0.027 0.021,-0.048 0.047,-0.048 z m 0.751,0 H 18.213 V 9.575 h 0.751 l 0.039,0.075 z m 0,-0.095 c 0.026,0 0.047,0.021 0.047,0.048 0,0.026 -0.021,0.047 -0.047,0.047 z M 22.797,4.323 19.003,9.65 18.925,9.595 22.72,4.267 22.806,4.295 Z M 22.72,4.267 c 0.015,-0.021 0.045,-0.026 0.066,-0.011 0.021,0.015 0.026,0.045 0.011,0.067 z M 22.806,3.51 V 4.295 H 22.711 V 3.51 Z m -0.095,0 c 0,-0.026 0.021,-0.048 0.047,-0.048 0.027,0 0.048,0.022 0.048,0.048 z"
   id="path33" />
     </g>
     <g
   id="g39">
      <path
   class="fil2"
   d="m 22.711,8.1 c 0,-0.026 0.021,-0.048 0.047,-0.048 0.027,0 0.048,0.022 0.048,0.048 z m 0,0.762 V 8.1 h 0.095 v 0.762 l -0.043,0.047 z m 0.095,0 c 0,0.026 -0.021,0.048 -0.048,0.048 -0.026,0 -0.047,-0.022 -0.047,-0.048 z m -7.642,0.713 7.59,-0.76 0.009,0.094 -7.59,0.761 H 15.168 Z M 15.173,9.67 C 15.147,9.672 15.124,9.653 15.121,9.627 15.119,9.601 15.138,9.578 15.164,9.575 Z m 0.774,0 H 15.168 V 9.575 h 0.779 l 0.015,0.093 z m 0,-0.095 c 0.026,0 0.047,0.021 0.047,0.048 0,0.026 -0.021,0.047 -0.047,0.047 z m 6.827,-2.201 -6.812,2.294 -0.03,-0.09 6.811,-2.294 0.063,0.045 z m -0.031,-0.09 c 0.025,-0.008 0.052,0.005 0.06,0.03 0.009,0.025 -0.005,0.052 -0.029,0.06 z M 22.806,6.567 V 7.329 H 22.711 V 6.567 Z m -0.095,0 c 0,-0.026 0.021,-0.047 0.047,-0.047 0.027,0 0.048,0.021 0.048,0.047 z"
   id="path37" />
     </g>
     <g
   id="g43">
      <path
   class="fil2"
   d="m 22.711,5.055 c 0,-0.026 0.021,-0.047 0.047,-0.047 0.027,0 0.048,0.021 0.048,0.047 z m 0,0.749 V 5.055 h 0.095 v 0.749 l -0.02,0.039 z m 0.095,0 c 0,0.027 -0.021,0.048 -0.048,0.048 -0.026,0 -0.047,-0.021 -0.047,-0.048 z m -5.395,3.78 5.32,-3.818 0.055,0.077 -5.319,3.818 -0.028,0.009 z m 0.056,0.077 C 17.445,9.676 17.416,9.671 17.4,9.65 17.385,9.629 17.39,9.599 17.411,9.584 Z M 16.684,9.575 h 0.755 V 9.67 h -0.755 z m 0,0.095 c -0.027,0 -0.048,-0.021 -0.048,-0.047 0,-0.027 0.021,-0.048 0.048,-0.048 z"
   id="path41" />
     </g>
     <g
   id="g47">
      <path
   class="fil2"
   d="m 23.225,8.87 c 0,0.026 -0.019,0.048 -0.043,0.048 -0.023,0 -0.042,-0.022 -0.042,-0.048 z m 0,-7.66 V 8.87 H 23.14 V 1.21 Z m -0.085,0 c 0,-0.026 0.019,-0.047 0.042,-0.047 0.024,0 0.043,0.021 0.043,0.047 z"
   id="path45" />
     </g>
     <g
   id="g51">
      <path
   class="fil2"
   d="m 23.599,9.927 c 0.027,0 0.048,0.02 0.048,0.044 0,0.025 -0.021,0.045 -0.048,0.045 z m -9.217,0 h 9.217 v 0.089 h -9.217 z m 0,0.089 c -0.026,0 -0.047,-0.02 -0.047,-0.045 0,-0.024 0.021,-0.044 0.047,-0.044 z"
   id="path49" />
     </g>
     <g
   id="g55">
      <path
   class="fil2"
   d="m 21.245,9.67 c -0.026,0 -0.047,-0.021 -0.047,-0.047 0,-0.027 0.021,-0.048 0.047,-0.048 z m 0.765,0 H 21.245 V 9.575 h 0.765 l 0.047,0.052 z m 0,-0.095 c 0.026,0 0.048,0.021 0.048,0.048 0,0.026 -0.022,0.047 -0.048,0.047 z M 22.806,1.994 22.057,9.627 21.963,9.618 22.711,1.985 22.806,1.989 Z M 22.711,1.985 c 0.003,-0.026 0.026,-0.045 0.052,-0.043 0.026,0.003 0.045,0.026 0.043,0.052 z m 0,0.791 V 1.989 h 0.095 v 0.787 l -0.002,0.015 z m 0.095,0 c 0,0.027 -0.021,0.048 -0.048,0.048 -0.026,0 -0.047,-0.021 -0.047,-0.048 z m -2.349,6.832 2.256,-6.846 0.091,0.029 -2.257,6.846 -0.045,0.033 z m 0.09,0.029 C 20.539,9.662 20.512,9.676 20.487,9.668 20.462,9.66 20.449,9.633 20.457,9.608 Z M 19.744,9.575 h 0.758 V 9.67 h -0.758 z m 0,0.095 c -0.026,0 -0.048,-0.021 -0.048,-0.047 0,-0.027 0.022,-0.048 0.048,-0.048 z"
   id="path53" />
     </g>
    </g>
    <path
   class="fil2"
   d="m 21.527,12.181 h 0.147 v 0.642 c 0,0.111 -0.013,0.2 -0.038,0.266 -0.025,0.065 -0.071,0.119 -0.136,0.16 -0.066,0.041 -0.152,0.062 -0.26,0.062 -0.103,0 -0.188,-0.018 -0.254,-0.054 -0.067,-0.036 -0.114,-0.088 -0.142,-0.156 -0.028,-0.068 -0.042,-0.161 -0.042,-0.278 v -0.642 h 0.147 v 0.641 c 0,0.097 0.009,0.168 0.027,0.214 0.018,0.045 0.048,0.081 0.092,0.106 0.044,0.024 0.097,0.037 0.16,0.037 0.107,0 0.184,-0.025 0.23,-0.074 0.046,-0.049 0.069,-0.143 0.069,-0.283 z m 0.391,1.111 v -1.111 h 0.151 l 0.583,0.872 v -0.872 h 0.141 v 1.111 H 22.642 L 22.059,12.42 v 0.872 z m 1.147,0 v -1.111 h 0.148 v 1.111 z m 0.723,0 -0.429,-1.111 h 0.159 l 0.289,0.807 c 0.023,0.065 0.042,0.126 0.058,0.182 0.017,-0.061 0.037,-0.121 0.06,-0.182 l 0.299,-0.807 h 0.15 l -0.433,1.111 z m 0.722,0 v -1.111 h 0.802 v 0.13 h -0.655 v 0.342 h 0.613 v 0.13 h -0.613 v 0.379 h 0.682 v 0.13 z m 1.035,0 v -1.111 h 0.493 c 0.099,0 0.174,0.01 0.225,0.03 0.052,0.02 0.093,0.055 0.124,0.105 0.03,0.051 0.046,0.107 0.046,0.168 0,0.079 -0.026,0.145 -0.077,0.199 -0.051,0.054 -0.129,0.088 -0.236,0.103 0.039,0.019 0.069,0.037 0.089,0.055 0.043,0.04 0.083,0.089 0.121,0.148 l 0.193,0.303 H 26.339 L 26.192,13.061 C 26.149,12.994 26.114,12.943 26.086,12.907 26.058,12.872 26.033,12.847 26.011,12.833 25.99,12.819 25.967,12.809 25.944,12.804 25.928,12.8 25.901,12.798 25.863,12.798 h -0.171 v 0.494 z m 0.147,-0.621 h 0.316 c 0.067,0 0.12,-0.007 0.157,-0.021 0.038,-0.013 0.067,-0.036 0.086,-0.066 0.02,-0.031 0.03,-0.064 0.03,-0.1 0,-0.053 -0.019,-0.096 -0.057,-0.13 -0.038,-0.034 -0.098,-0.051 -0.18,-0.051 h -0.352 z m 0.923,0.264 0.138,-0.012 c 0.006,0.055 0.021,0.101 0.046,0.137 0.024,0.036 0.061,0.065 0.111,0.087 0.051,0.022 0.108,0.033 0.171,0.033 0.056,0 0.105,-0.008 0.148,-0.025 0.043,-0.017 0.075,-0.04 0.096,-0.069 0.021,-0.029 0.031,-0.061 0.031,-0.095 0,-0.035 -0.01,-0.065 -0.03,-0.091 -0.02,-0.026 -0.053,-0.048 -0.1,-0.066 -0.03,-0.011 -0.096,-0.029 -0.198,-0.054 -0.102,-0.024 -0.173,-0.047 -0.214,-0.069 -0.053,-0.028 -0.093,-0.063 -0.118,-0.104 -0.026,-0.041 -0.039,-0.087 -0.039,-0.138 0,-0.056 0.016,-0.109 0.047,-0.158 0.032,-0.049 0.079,-0.086 0.14,-0.111 0.061,-0.025 0.129,-0.038 0.204,-0.038 0.082,0 0.155,0.013 0.217,0.04 0.063,0.026 0.112,0.065 0.146,0.117 0.033,0.052 0.052,0.11 0.054,0.175 l -0.141,0.011 c -0.008,-0.07 -0.033,-0.123 -0.077,-0.159 -0.044,-0.036 -0.108,-0.054 -0.194,-0.054 -0.089,0 -0.154,0.017 -0.194,0.049 -0.041,0.033 -0.061,0.072 -0.061,0.118 0,0.04 0.014,0.073 0.043,0.099 0.028,0.026 0.102,0.052 0.222,0.079 0.119,0.027 0.201,0.051 0.246,0.071 0.064,0.03 0.112,0.067 0.143,0.113 0.03,0.046 0.046,0.098 0.046,0.157 0,0.06 -0.017,0.115 -0.051,0.167 -0.034,0.053 -0.082,0.093 -0.146,0.122 -0.063,0.029 -0.134,0.044 -0.213,0.044 -0.101,0 -0.185,-0.015 -0.253,-0.044 -0.068,-0.03 -0.121,-0.074 -0.159,-0.133 -0.039,-0.058 -0.059,-0.125 -0.061,-0.199 z m 1.108,0.357 v -1.111 h 0.147 v 1.111 z m 0.406,0 v -1.111 h 0.383 c 0.086,0 0.152,0.005 0.198,0.015 0.064,0.015 0.118,0.042 0.163,0.08 0.059,0.05 0.102,0.113 0.131,0.19 0.029,0.077 0.044,0.165 0.044,0.264 0,0.085 -0.01,0.159 -0.029,0.225 -0.02,0.065 -0.045,0.119 -0.076,0.162 -0.031,0.042 -0.065,0.076 -0.102,0.1 -0.036,0.025 -0.08,0.043 -0.132,0.056 -0.052,0.013 -0.112,0.019 -0.179,0.019 z m 0.148,-0.13 h 0.237 c 0.073,0 0.13,-0.007 0.172,-0.021 0.041,-0.014 0.075,-0.033 0.099,-0.057 0.035,-0.036 0.062,-0.083 0.082,-0.142 0.019,-0.058 0.029,-0.13 0.029,-0.214 0,-0.116 -0.019,-0.206 -0.057,-0.268 -0.038,-0.063 -0.085,-0.105 -0.139,-0.126 -0.04,-0.015 -0.103,-0.023 -0.19,-0.023 h -0.233 z m 0.851,0.13 0.426,-1.111 h 0.162 l 0.453,1.111 h -0.168 l -0.128,-0.337 h -0.468 l -0.121,0.337 z m 0.32,-0.456 h 0.379 l -0.116,-0.308 c -0.035,-0.094 -0.062,-0.171 -0.08,-0.232 -0.015,0.072 -0.036,0.143 -0.061,0.213 z m 0.837,0.456 v -1.111 h 0.383 c 0.086,0 0.152,0.005 0.198,0.015 0.064,0.015 0.118,0.042 0.163,0.08 0.059,0.05 0.102,0.113 0.131,0.19 0.029,0.077 0.044,0.165 0.044,0.264 0,0.085 -0.01,0.159 -0.029,0.225 -0.02,0.065 -0.046,0.119 -0.076,0.162 -0.031,0.042 -0.065,0.076 -0.102,0.1 -0.036,0.025 -0.08,0.043 -0.132,0.056 -0.052,0.013 -0.112,0.019 -0.179,0.019 z m 0.148,-0.13 h 0.237 c 0.073,0 0.13,-0.007 0.172,-0.021 0.042,-0.014 0.075,-0.033 0.099,-0.057 0.035,-0.036 0.062,-0.083 0.082,-0.142 0.019,-0.058 0.029,-0.13 0.029,-0.214 0,-0.116 -0.019,-0.206 -0.057,-0.268 -0.038,-0.063 -0.085,-0.105 -0.139,-0.126 -0.04,-0.015 -0.103,-0.023 -0.19,-0.023 h -0.233 z"
   id="path59" />
    <rect
   class="fil3"
   x="14.32"
   y="10.738"
   width="23.365"
   height="0.454"
   id="rect61" />
   </g>
   <g
   id="g83"
   transform="translate(-14.521001)">
    <g
   id="g73">
     <path
   class="fil3"
   d="m 87.553,4.492 c -0.826,-0.149 -1.947,0.097 -2.287,0.632 -0.588,0.926 1.057,1.467 1.358,0.731 -0.087,-0.198 -0.4,-0.541 0.115,-1.01 0.217,-0.21 0.749,-0.273 0.91,0.218 0.243,0.738 -0.186,1.105 -0.835,1.287 -0.638,0.284 -1.913,0.366 -1.953,1.465 -0.055,1.514 1.697,1.398 1.995,1.119 0.259,-0.085 0.764,-0.552 0.836,-0.715 l 0.01,0.89 1.997,-0.006 -0.002,-0.221 C 89.69,8.876 89.677,8.859 89.672,8.867 89.671,8.868 89.379,8.791 89.318,8.52 89.257,8.249 89.36,5.958 89.273,5.607 89.069,4.785 88.242,4.628 88.214,4.603 88.097,4.501 88.164,4.612 88.138,4.42 c 0.444,0.101 0.673,0.098 0.905,-0.197 0.313,-0.399 0.034,-0.755 -0.017,-0.879 0.191,-0.306 0.666,-0.239 0.793,0.1 0.087,0.232 0.047,0.916 0.047,1.207 0.002,0.837 0.006,1.674 0.005,2.511 0,0.818 0.173,1.407 0.787,1.666 0.513,0.216 1.269,0.236 1.676,-0.178 0.024,-0.024 0.057,-0.063 0.084,-0.087 0.08,-0.068 0.024,-0.033 0.12,-0.08 -0.003,0.562 -0.04,0.391 0.126,0.61 0.344,-0.122 0.252,-0.4 1.721,-0.396 L 94.399,8.47 C 94.098,8.345 94.03,8.232 94.029,7.782 L 94.037,4.656 C 93.958,4.614 93.91,4.582 93.84,4.539 L 93.512,4.736 C 92.957,5.005 92.553,4.873 92.178,4.95 l -0.004,0.206 c 0.454,0.207 0.36,0.301 0.361,1.181 0,0.513 0.025,1.014 -0.07,1.514 -0.07,0.375 -0.314,0.924 -0.679,0.881 C 91.347,8.681 91.364,7.996 91.365,7.575 91.366,6.532 91.368,5.488 91.368,4.445 91.368,3.72 91.239,3.247 90.509,2.927 90.333,2.85 90.067,2.813 89.907,2.724 89.536,2.753 89.325,2.674 88.908,2.779 88.63,2.85 88.352,2.961 88.178,3.115 87.33,3.867 88.129,4.251 88.143,4.568 Z M 87.708,6.13 87.234,6.543 C 87.059,6.675 86.9,6.815 86.76,6.996 85.973,8.012 86.689,9.321 87.636,7.908 87.781,7.692 87.7,6.51 87.708,6.13 Z"
   id="path65" />
     <path
   class="fil3"
   d="m 82.976,8.102 0.003,0.905 -0.005,0.426 0.079,0.058 0.255,0.112 c 0.626,0.383 1.177,0.744 1.763,1.133 0.516,0.343 1.253,0.771 1.958,0.947 0.659,0.198 1.565,0.159 2.167,-0.258 l 0.123,-0.069 c 0.206,-0.223 0.514,-0.55 0.315,-1.057 -0.129,-0.327 -0.442,-0.581 -0.92,-0.555 -0.051,0.084 -0.01,0.082 -0.07,0.233 -0.083,0.207 -0.314,0.404 -0.537,0.499 -0.448,0.192 -0.732,0.088 -1.198,0.083 -0.207,-0.063 -0.423,-0.092 -0.645,-0.156 -0.208,-0.06 -0.393,-0.12 -0.591,-0.198 -0.352,-0.14 -0.787,-0.358 -1.124,-0.456 l 10e-4,-5.27 c 0,-1.132 -0.108,-1.134 0.38,-1.341 l 0.003,-0.285 h -2.348 l 0.006,0.284 c 0.191,0.09 0.324,0.063 0.368,0.319 l 0.01,1.986 c 0,0.876 0.032,1.793 0.007,2.66 z"
   id="path67" />
     <path
   class="fil3"
   d="m 97.311,7.172 c -0.109,0.274 -0.21,0.312 -0.206,0.714 0.002,0.291 0.083,0.549 0.213,0.751 0.238,0.368 0.842,0.551 1.469,0.427 0.71,-0.161 0.975,-0.71 1.165,-0.836 l -0.001,0.879 1.998,0.001 -0.001,-0.226 C 101.823,8.787 101.609,8.811 101.563,8.458 L 101.558,6.13 c 10e-4,-0.583 -0.081,-0.855 -0.406,-1.155 -0.249,-0.23 -0.648,-0.41 -1.09,-0.46 -2.774,-0.312 -3.068,1.168 -2.287,1.567 0.375,0.19 0.959,0.152 1.102,-0.227 0,-0.042 -0.301,-0.307 -0.09,-0.763 0.214,-0.463 0.956,-0.587 1.119,-0.003 0.278,0.992 -0.496,1.148 -1.353,1.421 -1.077,0.342 -0.91,0.458 -1.242,0.662 z M 99.95,7.713 V 6.138 L 99.002,6.96 C 98.877,7.108 98.716,7.536 98.685,7.747 98.617,8.201 98.797,8.708 99.292,8.486 99.481,8.401 99.95,7.95 99.95,7.713 Z"
   id="path69" />
     <path
   class="fil3"
   d="M 96.538,4.65 96.361,5.044 C 96.331,4.731 96.381,4.851 96.179,4.693 96.065,4.75 96.011,4.816 95.851,4.876 95.369,5.055 95.007,5.058 94.499,5.071 l -0.007,0.234 c 0.324,0.138 0.359,0.061 0.36,0.722 l 0.004,2.133 c 0.003,0.524 0.025,0.51 -0.357,0.722 l -0.006,0.224 2.216,10e-4 C 96.701,8.675 96.663,8.99 96.458,8.74 96.269,8.51 96.361,7.325 96.393,7.025 96.484,6.166 96.605,5.775 96.86,5.03 96.985,4.932 97.091,4.424 97.672,4.185 97.903,4.089 97.906,4.111 98.122,4.188 98.441,4.302 98.777,4.174 98.928,3.995 99.202,3.672 99.058,3.497 99.017,3.168 98.944,3.113 98.922,3.088 98.845,3.018 98.352,2.566 97.663,3.07 97.295,3.461 97.019,3.755 96.713,4.367 96.538,4.65 Z"
   id="path71" />
    </g>
    <g
   id="g81">
     <path
   class="fil4"
   d="M 96.914,10.065 V 9.337 h 0.097 V 9.98 h 0.358 v 0.085 z m 0.904,-0.066 c -0.034,0.028 -0.065,0.048 -0.096,0.06 -0.031,0.011 -0.064,0.017 -0.099,0.017 -0.058,0 -0.103,-0.014 -0.134,-0.042 -0.031,-0.028 -0.047,-0.065 -0.047,-0.108 0,-0.026 0.006,-0.05 0.018,-0.071 0.012,-0.022 0.027,-0.039 0.046,-0.051 0.019,-0.013 0.041,-0.023 0.065,-0.03 0.017,-0.004 0.044,-0.009 0.079,-0.013 0.073,-0.009 0.126,-0.019 0.16,-0.031 0,-0.012 0.001,-0.02 0.001,-0.023 0,-0.036 -0.009,-0.062 -0.026,-0.077 C 97.762,9.61 97.728,9.6 97.683,9.6 97.641,9.6 97.61,9.607 97.59,9.622 97.569,9.637 97.555,9.663 97.545,9.701 L 97.458,9.688 c 0.008,-0.037 0.021,-0.067 0.039,-0.09 0.018,-0.024 0.045,-0.041 0.079,-0.054 0.035,-0.012 0.075,-0.018 0.12,-0.018 0.045,0 0.082,0.005 0.111,0.016 0.028,0.01 0.049,0.024 0.062,0.04 0.013,0.016 0.022,0.036 0.028,0.061 0.003,0.015 0.004,0.042 0.004,0.082 v 0.119 c 0,0.083 0.002,0.135 0.006,0.157 0.003,0.022 0.011,0.044 0.022,0.064 H 97.835 C 97.826,10.046 97.82,10.024 97.818,9.999 Z M 97.811,9.8 c -0.033,0.014 -0.082,0.025 -0.147,0.034 -0.037,0.005 -0.063,0.011 -0.078,0.018 -0.015,0.006 -0.027,0.016 -0.036,0.029 -0.008,0.012 -0.012,0.026 -0.012,0.042 0,0.024 0.009,0.043 0.027,0.059 0.018,0.016 0.045,0.024 0.08,0.024 0.034,0 0.065,-0.008 0.092,-0.023 0.026,-0.015 0.046,-0.035 0.059,-0.061 0.009,-0.02 0.014,-0.05 0.014,-0.089 z m 0.31,0.265 H 98.038 V 9.337 h 0.089 v 0.259 c 0.038,-0.047 0.086,-0.07 0.145,-0.07 0.032,0 0.063,0.006 0.092,0.019 0.029,0.013 0.053,0.032 0.072,0.055 0.018,0.024 0.033,0.053 0.044,0.086 0.01,0.033 0.015,0.069 0.015,0.107 0,0.09 -0.022,0.16 -0.067,0.209 -0.044,0.049 -0.098,0.074 -0.16,0.074 -0.063,0 -0.111,-0.026 -0.147,-0.078 z M 98.12,9.797 c 0,0.063 0.009,0.109 0.026,0.137 0.028,0.046 0.066,0.069 0.114,0.069 0.039,0 0.073,-0.017 0.101,-0.051 C 98.39,9.918 98.404,9.867 98.404,9.8 98.404,9.732 98.39,9.681 98.363,9.648 98.336,9.615 98.303,9.599 98.264,9.599 98.225,9.599 98.191,9.616 98.163,9.65 98.134,9.684 98.12,9.733 98.12,9.797 Z m 0.451,0.004 c 0,-0.098 0.027,-0.17 0.082,-0.217 0.045,-0.039 0.1,-0.058 0.166,-0.058 0.072,0 0.131,0.023 0.177,0.071 0.046,0.047 0.069,0.113 0.069,0.196 0,0.068 -0.01,0.121 -0.03,0.16 -0.02,0.039 -0.05,0.069 -0.089,0.091 -0.039,0.021 -0.081,0.032 -0.127,0.032 -0.074,0 -0.134,-0.023 -0.18,-0.071 C 98.594,9.958 98.571,9.89 98.571,9.801 Z m 0.092,0 c 0,0.068 0.014,0.118 0.044,0.151 0.03,0.034 0.067,0.051 0.112,0.051 0.044,0 0.081,-0.017 0.111,-0.051 0.029,-0.033 0.044,-0.085 0.044,-0.154 0,-0.065 -0.015,-0.114 -0.045,-0.148 C 98.9,9.617 98.863,9.6 98.819,9.6 c -0.045,0 -0.082,0.017 -0.112,0.05 -0.03,0.033 -0.044,0.084 -0.044,0.151 z m 0.506,0.264 V 9.537 h 0.081 v 0.081 c 0.02,-0.038 0.039,-0.062 0.057,-0.074 0.017,-0.012 0.036,-0.018 0.057,-0.018 0.03,0 0.061,0.009 0.092,0.028 L 99.424,9.637 C 99.403,9.624 99.381,9.618 99.359,9.618 c -0.019,0 -0.037,0.006 -0.052,0.018 -0.015,0.012 -0.027,0.028 -0.033,0.049 -0.01,0.031 -0.015,0.066 -0.015,0.104 v 0.276 z m 0.685,-0.066 c -0.033,0.028 -0.065,0.048 -0.096,0.06 -0.031,0.011 -0.063,0.017 -0.099,0.017 -0.058,0 -0.102,-0.014 -0.133,-0.042 -0.032,-0.028 -0.047,-0.065 -0.047,-0.108 0,-0.026 0.006,-0.05 0.017,-0.071 0.012,-0.022 0.028,-0.039 0.047,-0.051 0.019,-0.013 0.04,-0.023 0.064,-0.03 C 99.625,9.77 99.651,9.765 99.687,9.761 99.759,9.752 99.812,9.742 99.846,9.73 99.847,9.718 99.847,9.71 99.847,9.707 99.847,9.671 99.838,9.645 99.822,9.63 99.799,9.61 99.765,9.6 99.719,9.6 c -0.042,0 -0.073,0.007 -0.093,0.022 -0.02,0.015 -0.035,0.041 -0.045,0.079 L 99.494,9.688 c 0.008,-0.037 0.021,-0.067 0.039,-0.09 0.019,-0.024 0.045,-0.041 0.08,-0.054 0.034,-0.012 0.074,-0.018 0.12,-0.018 0.045,0 0.082,0.005 0.11,0.016 0.028,0.01 0.049,0.024 0.062,0.04 0.013,0.016 0.023,0.036 0.028,0.061 0.003,0.015 0.005,0.042 0.005,0.082 v 0.119 c 0,0.083 10e-4,0.135 0.005,0.157 0.004,0.022 0.011,0.044 0.022,0.064 H 99.871 C 99.862,10.046 99.857,10.024 99.854,9.999 Z M 99.847,9.8 c -0.032,0.014 -0.081,0.025 -0.146,0.034 -0.037,0.005 -0.064,0.011 -0.079,0.018 -0.015,0.006 -0.027,0.016 -0.035,0.029 -0.008,0.012 -0.013,0.026 -0.013,0.042 0,0.024 0.009,0.043 0.028,0.059 0.018,0.016 0.044,0.024 0.079,0.024 0.034,0 0.065,-0.008 0.092,-0.023 0.027,-0.015 0.047,-0.035 0.059,-0.061 0.01,-0.02 0.014,-0.05 0.014,-0.089 z m 0.422,0.185 0.013,0.079 c -0.025,0.005 -0.048,0.008 -0.068,0.008 -0.032,0 -0.057,-0.005 -0.075,-0.015 -0.018,-0.011 -0.03,-0.024 -0.038,-0.041 C 100.094,9.999 100.09,9.964 100.09,9.91 V 9.606 h -0.066 V 9.537 h 0.066 V 9.406 l 0.09,-0.053 v 0.184 h 0.089 v 0.069 h -0.089 v 0.309 c 0,0.026 10e-4,0.042 0.005,0.05 0.003,0.007 0.008,0.013 0.015,0.017 0.007,0.004 0.017,0.007 0.03,0.007 0.01,0 0.023,-0.001 0.039,-0.004 z m 0.055,-0.184 c 0,-0.098 0.027,-0.17 0.082,-0.217 0.045,-0.039 0.1,-0.058 0.166,-0.058 0.072,0 0.131,0.023 0.178,0.071 0.046,0.047 0.069,0.113 0.069,0.196 0,0.068 -0.011,0.121 -0.031,0.16 -0.02,0.039 -0.05,0.069 -0.089,0.091 -0.039,0.021 -0.081,0.032 -0.127,0.032 -0.074,0 -0.134,-0.023 -0.179,-0.071 -0.046,-0.047 -0.069,-0.115 -0.069,-0.204 z m 0.092,0 c 0,0.068 0.014,0.118 0.044,0.151 0.03,0.034 0.067,0.051 0.112,0.051 0.044,0 0.081,-0.017 0.111,-0.051 0.029,-0.033 0.044,-0.085 0.044,-0.154 0,-0.065 -0.015,-0.114 -0.045,-0.148 -0.029,-0.033 -0.066,-0.05 -0.11,-0.05 -0.045,0 -0.082,0.017 -0.112,0.05 -0.03,0.033 -0.044,0.084 -0.044,0.151 z m 0.507,0.264 V 9.537 h 0.08 v 0.081 c 0.02,-0.038 0.039,-0.062 0.057,-0.074 0.017,-0.012 0.037,-0.018 0.057,-0.018 0.031,0 0.061,0.009 0.092,0.028 l -0.031,0.083 c -0.022,-0.013 -0.044,-0.019 -0.066,-0.019 -0.019,0 -0.036,0.006 -0.052,0.018 -0.015,0.012 -0.026,0.028 -0.033,0.049 -0.01,0.031 -0.015,0.066 -0.015,0.104 v 0.276 z m 0.339,-0.627 V 9.337 h 0.09 v 0.101 z m 0,0.627 V 9.537 h 0.09 v 0.528 z m 0.193,-0.264 c 0,-0.098 0.027,-0.17 0.081,-0.217 0.046,-0.039 0.101,-0.058 0.167,-0.058 0.072,0 0.131,0.023 0.177,0.071 0.046,0.047 0.069,0.113 0.069,0.196 0,0.068 -0.01,0.121 -0.03,0.16 -0.02,0.039 -0.05,0.069 -0.089,0.091 -0.039,0.021 -0.082,0.032 -0.127,0.032 -0.074,0 -0.134,-0.023 -0.18,-0.071 -0.045,-0.047 -0.068,-0.115 -0.068,-0.204 z m 0.091,0 c 0,0.068 0.015,0.118 0.045,0.151 0.029,0.034 0.066,0.051 0.112,0.051 0.044,0 0.081,-0.017 0.111,-0.051 0.029,-0.033 0.044,-0.085 0.044,-0.154 0,-0.065 -0.015,-0.114 -0.045,-0.148 -0.03,-0.033 -0.066,-0.05 -0.11,-0.05 -0.046,0 -0.083,0.017 -0.112,0.05 -0.03,0.033 -0.045,0.084 -0.045,0.151 z"
   id="path75" />
     <path
   class="fil4"
   d="m 97.342,11.721 c -0.033,0.028 -0.065,0.048 -0.096,0.059 -0.03,0.012 -0.063,0.018 -0.099,0.018 -0.058,0 -0.102,-0.014 -0.133,-0.042 -0.032,-0.029 -0.047,-0.065 -0.047,-0.109 0,-0.025 0.006,-0.049 0.017,-0.07 0.012,-0.022 0.028,-0.039 0.047,-0.052 0.019,-0.012 0.04,-0.022 0.064,-0.029 0.018,-0.004 0.044,-0.009 0.08,-0.013 0.072,-0.009 0.125,-0.019 0.16,-0.031 0,-0.012 0,-0.02 0,-0.023 0,-0.036 -0.008,-0.062 -0.025,-0.077 -0.023,-0.02 -0.057,-0.03 -0.102,-0.03 -0.043,0 -0.074,0.007 -0.094,0.022 -0.02,0.015 -0.035,0.041 -0.044,0.079 L 96.982,11.41 c 0.008,-0.037 0.021,-0.067 0.039,-0.091 0.019,-0.023 0.045,-0.04 0.08,-0.053 0.034,-0.012 0.074,-0.018 0.12,-0.018 0.045,0 0.082,0.005 0.11,0.016 0.028,0.01 0.049,0.023 0.062,0.039 0.013,0.017 0.023,0.037 0.028,0.062 0.003,0.015 0.005,0.042 0.005,0.082 v 0.118 c 0,0.083 0.002,0.136 0.005,0.158 0.004,0.022 0.011,0.043 0.022,0.064 H 97.36 c -0.01,-0.019 -0.015,-0.041 -0.018,-0.066 z m -0.007,-0.199 c -0.033,0.014 -0.081,0.025 -0.147,0.034 -0.036,0.005 -0.063,0.011 -0.078,0.018 -0.015,0.006 -0.027,0.016 -0.035,0.029 -0.008,0.012 -0.013,0.026 -0.013,0.042 0,0.023 0.009,0.043 0.028,0.059 0.018,0.016 0.044,0.024 0.079,0.024 0.034,0 0.065,-0.008 0.092,-0.023 0.027,-0.015 0.046,-0.035 0.059,-0.061 0.01,-0.02 0.015,-0.05 0.015,-0.089 z m 0.573,0.265 v -0.079 c -0.041,0.06 -0.097,0.09 -0.167,0.09 -0.031,0 -0.06,-0.006 -0.087,-0.018 -0.027,-0.012 -0.047,-0.027 -0.06,-0.045 -0.013,-0.018 -0.022,-0.04 -0.027,-0.066 -0.004,-0.018 -0.006,-0.046 -0.006,-0.084 v -0.326 h 0.09 v 0.292 c 0,0.046 0.001,0.078 0.005,0.094 0.006,0.024 0.017,0.042 0.036,0.056 0.018,0.013 0.04,0.02 0.067,0.02 0.027,0 0.052,-0.007 0.075,-0.021 0.024,-0.014 0.041,-0.032 0.05,-0.056 0.01,-0.024 0.015,-0.058 0.015,-0.103 v -0.282 h 0.089 v 0.528 z m 0.562,0 V 11.72 c -0.034,0.052 -0.083,0.078 -0.148,0.078 -0.042,0 -0.08,-0.011 -0.116,-0.035 -0.035,-0.023 -0.062,-0.055 -0.082,-0.097 -0.019,-0.041 -0.029,-0.089 -0.029,-0.143 0,-0.052 0.009,-0.1 0.027,-0.143 0.017,-0.043 0.044,-0.075 0.079,-0.098 0.035,-0.023 0.074,-0.034 0.117,-0.034 0.032,0 0.06,0.006 0.085,0.02 0.025,0.013 0.045,0.031 0.061,0.052 v -0.262 h 0.089 v 0.729 z m -0.283,-0.264 c 0,0.068 0.014,0.118 0.043,0.152 0.028,0.033 0.062,0.05 0.101,0.05 0.039,0 0.072,-0.016 0.1,-0.048 0.027,-0.032 0.041,-0.081 0.041,-0.146 0,-0.072 -0.014,-0.125 -0.042,-0.159 -0.028,-0.033 -0.062,-0.05 -0.103,-0.05 -0.04,0 -0.073,0.016 -0.1,0.048 -0.027,0.033 -0.04,0.084 -0.04,0.153 z m 0.508,-0.363 v -0.102 h 0.089 v 0.102 z m 0,0.627 v -0.528 h 0.089 v 0.528 z m 0.192,-0.264 c 0,-0.098 0.027,-0.17 0.082,-0.217 0.045,-0.039 0.101,-0.058 0.166,-0.058 0.072,0 0.132,0.023 0.178,0.071 0.046,0.047 0.069,0.113 0.069,0.196 0,0.068 -0.01,0.121 -0.031,0.16 -0.02,0.039 -0.05,0.069 -0.089,0.091 -0.039,0.021 -0.081,0.032 -0.127,0.032 -0.074,0 -0.134,-0.024 -0.179,-0.071 -0.046,-0.047 -0.069,-0.115 -0.069,-0.204 z m 0.092,0 c 0,0.067 0.015,0.118 0.044,0.151 0.03,0.034 0.067,0.051 0.112,0.051 0.044,0 0.081,-0.017 0.111,-0.051 0.029,-0.034 0.044,-0.085 0.044,-0.154 0,-0.065 -0.015,-0.114 -0.044,-0.148 -0.03,-0.033 -0.067,-0.05 -0.111,-0.05 -0.045,0 -0.082,0.016 -0.112,0.05 -0.029,0.033 -0.044,0.084 -0.044,0.151 z m 0.652,0.264 -0.199,-0.528 h 0.096 l 0.113,0.316 c 0.012,0.034 0.023,0.069 0.033,0.106 0.008,-0.028 0.019,-0.061 0.034,-0.1 l 0.117,-0.322 h 0.092 l -0.2,0.528 z m 0.364,-0.627 v -0.102 h 0.09 v 0.102 z m 0,0.627 v -0.528 h 0.09 v 0.528 z m 0.191,-0.158 0.088,-0.014 c 0.005,0.035 0.019,0.062 0.042,0.081 0.023,0.019 0.054,0.029 0.095,0.029 0.041,0 0.072,-0.009 0.092,-0.025 0.02,-0.017 0.03,-0.037 0.03,-0.059 0,-0.02 -0.009,-0.036 -0.027,-0.048 -0.013,-0.008 -0.043,-0.018 -0.092,-0.03 -0.065,-0.017 -0.11,-0.031 -0.136,-0.043 -0.025,-0.012 -0.044,-0.029 -0.057,-0.05 -0.013,-0.021 -0.02,-0.045 -0.02,-0.071 0,-0.023 0.006,-0.045 0.016,-0.065 0.011,-0.02 0.026,-0.037 0.044,-0.05 0.014,-0.01 0.033,-0.019 0.057,-0.026 0.024,-0.007 0.05,-0.01 0.077,-0.01 0.041,0 0.078,0.006 0.109,0.017 0.031,0.012 0.054,0.029 0.069,0.049 0.015,0.021 0.025,0.048 0.031,0.082 l -0.088,0.012 c -0.003,-0.027 -0.015,-0.049 -0.034,-0.064 -0.019,-0.016 -0.046,-0.023 -0.081,-0.023 -0.04,0 -0.07,0.007 -0.087,0.02 -0.018,0.014 -0.026,0.03 -0.026,0.048 0,0.011 0.003,0.022 0.01,0.031 0.008,0.01 0.019,0.018 0.035,0.024 0.009,0.003 0.035,0.011 0.079,0.023 0.063,0.017 0.107,0.031 0.132,0.041 0.025,0.011 0.045,0.027 0.059,0.047 0.014,0.02 0.021,0.046 0.021,0.076 0,0.03 -0.008,0.058 -0.026,0.084 -0.017,0.027 -0.042,0.047 -0.075,0.061 -0.033,0.015 -0.07,0.022 -0.111,0.022 -0.069,0 -0.121,-0.014 -0.157,-0.043 -0.036,-0.028 -0.059,-0.07 -0.069,-0.126 z m 0.889,0.158 v -0.079 c -0.041,0.06 -0.097,0.09 -0.167,0.09 -0.031,0 -0.06,-0.006 -0.087,-0.018 -0.027,-0.012 -0.047,-0.027 -0.06,-0.045 -0.013,-0.018 -0.022,-0.04 -0.027,-0.066 -0.004,-0.018 -0.006,-0.046 -0.006,-0.084 v -0.326 h 0.09 v 0.292 c 0,0.046 0.001,0.078 0.005,0.094 0.006,0.024 0.017,0.042 0.036,0.056 0.018,0.013 0.04,0.02 0.067,0.02 0.027,0 0.052,-0.007 0.075,-0.021 0.024,-0.014 0.041,-0.032 0.05,-0.056 0.01,-0.024 0.015,-0.058 0.015,-0.103 v -0.282 h 0.089 v 0.528 z m 0.566,-0.066 c -0.033,0.028 -0.065,0.048 -0.096,0.059 -0.031,0.012 -0.064,0.018 -0.099,0.018 -0.058,0 -0.103,-0.014 -0.134,-0.042 -0.031,-0.029 -0.047,-0.065 -0.047,-0.109 0,-0.025 0.006,-0.049 0.018,-0.07 0.012,-0.022 0.027,-0.039 0.046,-0.052 0.02,-0.012 0.041,-0.022 0.065,-0.029 0.017,-0.004 0.044,-0.009 0.079,-0.013 0.073,-0.009 0.126,-0.019 0.16,-0.031 0.001,-0.012 0.001,-0.02 0.001,-0.023 0,-0.036 -0.009,-0.062 -0.026,-0.077 -0.023,-0.02 -0.057,-0.03 -0.102,-0.03 -0.042,0 -0.073,0.007 -0.093,0.022 -0.02,0.015 -0.035,0.041 -0.045,0.079 l -0.087,-0.013 c 0.008,-0.037 0.021,-0.067 0.039,-0.091 0.018,-0.023 0.045,-0.04 0.079,-0.053 0.035,-0.012 0.075,-0.018 0.12,-0.018 0.046,0 0.082,0.005 0.111,0.016 0.028,0.01 0.049,0.023 0.062,0.039 0.013,0.017 0.023,0.037 0.028,0.062 0.003,0.015 0.004,0.042 0.004,0.082 v 0.118 c 0,0.083 0.002,0.136 0.006,0.158 0.003,0.022 0.011,0.043 0.022,0.064 h -0.094 c -0.009,-0.019 -0.015,-0.041 -0.017,-0.066 z m -0.007,-0.199 c -0.033,0.014 -0.082,0.025 -0.147,0.034 -0.037,0.005 -0.063,0.011 -0.078,0.018 -0.015,0.006 -0.027,0.016 -0.035,0.029 -0.009,0.012 -0.013,0.026 -0.013,0.042 0,0.023 0.009,0.043 0.027,0.059 0.018,0.016 0.045,0.024 0.08,0.024 0.034,0 0.065,-0.008 0.092,-0.023 0.027,-0.015 0.046,-0.035 0.059,-0.061 0.009,-0.02 0.014,-0.05 0.014,-0.089 z m 0.226,0.265 v -0.729 h 0.089 v 0.729 z"
   id="path77" />
     <path
   class="fil4"
   d="m 96.914,10.917 v -0.079 c -0.041,0.06 -0.097,0.09 -0.167,0.09 -0.031,0 -0.06,-0.006 -0.087,-0.018 -0.027,-0.012 -0.047,-0.027 -0.06,-0.045 -0.013,-0.018 -0.022,-0.04 -0.027,-0.066 -0.004,-0.018 -0.006,-0.046 -0.006,-0.084 v -0.326 h 0.09 v 0.292 c 0,0.046 0.002,0.078 0.005,0.094 0.006,0.024 0.018,0.042 0.036,0.055 0.018,0.014 0.041,0.021 0.067,0.021 0.027,0 0.052,-0.007 0.076,-0.021 0.023,-0.014 0.04,-0.032 0.05,-0.056 0.009,-0.024 0.014,-0.058 0.014,-0.103 v -0.282 h 0.09 v 0.528 z m 0.221,0 v -0.528 h 0.081 v 0.075 c 0.038,-0.058 0.094,-0.087 0.167,-0.087 0.032,0 0.061,0.006 0.088,0.018 0.026,0.011 0.047,0.026 0.06,0.044 0.013,0.019 0.022,0.041 0.028,0.066 0.003,0.017 0.004,0.046 0.004,0.087 v 0.325 h -0.089 v -0.321 c 0,-0.037 -0.003,-0.064 -0.01,-0.082 -0.007,-0.018 -0.02,-0.032 -0.037,-0.043 -0.018,-0.011 -0.039,-0.016 -0.063,-0.016 -0.038,0 -0.07,0.012 -0.098,0.036 -0.028,0.024 -0.041,0.07 -0.041,0.138 v 0.288 z m 0.566,-0.627 v -0.102 h 0.09 v 0.102 z m 0,0.627 v -0.528 h 0.09 v 0.528 z m 0.37,0 -0.199,-0.528 h 0.096 l 0.113,0.316 c 0.012,0.034 0.023,0.069 0.034,0.106 0.008,-0.028 0.019,-0.061 0.033,-0.1 l 0.117,-0.322 h 0.092 l -0.2,0.528 z m 0.725,-0.171 0.092,0.012 c -0.014,0.054 -0.041,0.096 -0.08,0.125 -0.04,0.03 -0.09,0.045 -0.151,0.045 -0.077,0 -0.138,-0.024 -0.183,-0.071 -0.045,-0.048 -0.068,-0.114 -0.068,-0.2 0,-0.088 0.023,-0.157 0.069,-0.206 0.045,-0.049 0.104,-0.074 0.177,-0.074 0.071,0 0.128,0.024 0.172,0.072 0.045,0.048 0.068,0.116 0.068,0.203 0,0.005 -10e-4,0.013 -10e-4,0.024 h -0.393 c 0.003,0.057 0.019,0.102 0.049,0.132 0.029,0.031 0.066,0.047 0.11,0.047 0.033,0 0.061,-0.009 0.084,-0.026 0.023,-0.018 0.041,-0.045 0.055,-0.083 z m -0.293,-0.144 h 0.294 c -0.004,-0.044 -0.015,-0.077 -0.034,-0.1 -0.028,-0.034 -0.065,-0.051 -0.11,-0.051 -0.041,0 -0.076,0.013 -0.104,0.041 -0.028,0.027 -0.043,0.064 -0.046,0.11 z m 0.498,0.315 v -0.528 h 0.08 v 0.081 c 0.02,-0.038 0.039,-0.063 0.057,-0.075 0.017,-0.012 0.036,-0.018 0.057,-0.018 0.03,0 0.061,0.01 0.092,0.029 l -0.032,0.082 C 99.234,10.476 99.212,10.47 99.19,10.47 c -0.019,0 -0.036,0.006 -0.052,0.018 -0.015,0.011 -0.026,0.028 -0.033,0.048 -0.01,0.032 -0.015,0.067 -0.015,0.105 v 0.276 z m 0.304,-0.158 0.088,-0.014 c 0.005,0.035 0.019,0.062 0.042,0.081 0.023,0.019 0.054,0.029 0.095,0.029 0.041,0 0.072,-0.009 0.092,-0.026 0.02,-0.016 0.03,-0.036 0.03,-0.058 0,-0.021 -0.009,-0.037 -0.027,-0.048 -0.013,-0.008 -0.043,-0.018 -0.092,-0.03 -0.065,-0.017 -0.11,-0.031 -0.136,-0.043 -0.025,-0.012 -0.044,-0.029 -0.057,-0.05 -0.013,-0.022 -0.02,-0.045 -0.02,-0.071 0,-0.023 0.006,-0.045 0.016,-0.065 0.011,-0.02 0.026,-0.037 0.044,-0.05 0.014,-0.01 0.033,-0.019 0.057,-0.026 0.024,-0.007 0.05,-0.011 0.077,-0.011 0.041,0 0.078,0.006 0.109,0.018 0.031,0.012 0.054,0.029 0.069,0.049 0.015,0.02 0.025,0.048 0.031,0.082 l -0.088,0.012 c -0.003,-0.027 -0.015,-0.049 -0.034,-0.064 -0.019,-0.016 -0.046,-0.023 -0.081,-0.023 -0.04,0 -0.07,0.006 -0.087,0.02 -0.018,0.014 -0.027,0.03 -0.027,0.048 0,0.011 0.004,0.022 0.011,0.031 0.008,0.01 0.019,0.018 0.035,0.024 0.009,0.003 0.035,0.011 0.078,0.023 0.064,0.016 0.108,0.03 0.133,0.041 0.025,0.011 0.045,0.026 0.059,0.047 0.014,0.02 0.021,0.046 0.021,0.076 0,0.03 -0.008,0.058 -0.026,0.084 -0.017,0.027 -0.042,0.047 -0.075,0.061 -0.033,0.015 -0.07,0.022 -0.112,0.022 -0.068,0 -0.12,-0.014 -0.156,-0.043 -0.036,-0.028 -0.059,-0.07 -0.069,-0.126 z m 0.544,-0.469 v -0.102 h 0.09 v 0.102 z m 0,0.627 v -0.528 h 0.09 v 0.528 z m 0.42,-0.08 0.013,0.079 c -0.025,0.005 -0.048,0.008 -0.068,0.008 -0.032,0 -0.057,-0.005 -0.075,-0.016 -0.018,-0.01 -0.03,-0.023 -0.038,-0.04 -0.007,-0.017 -0.011,-0.052 -0.011,-0.106 v -0.304 h -0.066 v -0.069 h 0.066 v -0.131 l 0.09,-0.054 v 0.185 h 0.089 v 0.069 h -0.089 v 0.309 c 0,0.026 10e-4,0.042 0.005,0.049 0.003,0.008 0.008,0.013 0.015,0.018 0.007,0.004 0.017,0.006 0.03,0.006 0.01,0 0.023,-10e-4 0.039,-0.003 z m 0.434,0.014 c -0.034,0.028 -0.066,0.048 -0.096,0.059 -0.031,0.012 -0.064,0.018 -0.099,0.018 -0.058,0 -0.103,-0.014 -0.134,-0.043 -0.031,-0.028 -0.047,-0.064 -0.047,-0.108 0,-0.025 0.006,-0.049 0.018,-0.07 0.012,-0.022 0.027,-0.039 0.046,-0.052 0.019,-0.013 0.041,-0.022 0.065,-0.029 0.017,-0.005 0.044,-0.009 0.079,-0.013 0.073,-0.009 0.126,-0.019 0.16,-0.031 0,-0.012 0.001,-0.02 0.001,-0.023 0,-0.037 -0.009,-0.062 -0.026,-0.077 -0.023,-0.02 -0.057,-0.03 -0.102,-0.03 -0.042,0 -0.073,0.007 -0.094,0.022 -0.02,0.015 -0.034,0.041 -0.044,0.078 l -0.087,-0.012 c 0.007,-0.037 0.02,-0.068 0.039,-0.091 0.018,-0.023 0.045,-0.04 0.079,-0.053 0.035,-0.012 0.075,-0.019 0.12,-0.019 0.045,0 0.082,0.006 0.11,0.016 0.029,0.011 0.049,0.024 0.063,0.04 0.013,0.016 0.022,0.037 0.028,0.061 0.002,0.016 0.004,0.043 0.004,0.083 v 0.118 c 0,0.083 0.002,0.136 0.006,0.158 0.003,0.022 0.011,0.043 0.022,0.064 h -0.094 c -0.009,-0.019 -0.015,-0.041 -0.017,-0.066 z m -0.007,-0.199 c -0.033,0.013 -0.082,0.024 -0.147,0.034 -0.037,0.005 -0.063,0.011 -0.078,0.018 -0.016,0.006 -0.027,0.016 -0.036,0.028 -0.008,0.013 -0.012,0.027 -0.012,0.043 0,0.023 0.009,0.043 0.027,0.059 0.018,0.016 0.045,0.024 0.079,0.024 0.035,0 0.066,-0.008 0.092,-0.023 0.027,-0.015 0.047,-0.035 0.06,-0.061 0.009,-0.021 0.014,-0.05 0.014,-0.089 z m 0.227,0.265 v -0.528 h 0.08 v 0.081 c 0.02,-0.038 0.039,-0.063 0.057,-0.075 0.017,-0.012 0.037,-0.018 0.057,-0.018 0.031,0 0.061,0.01 0.092,0.029 l -0.031,0.082 c -0.022,-0.012 -0.044,-0.018 -0.066,-0.018 -0.019,0 -0.036,0.006 -0.052,0.018 -0.015,0.011 -0.026,0.028 -0.033,0.048 -0.01,0.032 -0.015,0.067 -0.015,0.105 v 0.276 z m 0.339,-0.627 v -0.102 h 0.09 v 0.102 z m 0,0.627 v -0.528 h 0.09 v 0.528 z m 0.193,-0.264 c 0,-0.098 0.027,-0.17 0.081,-0.217 0.046,-0.039 0.101,-0.059 0.167,-0.059 0.072,0 0.131,0.024 0.177,0.072 0.046,0.047 0.069,0.113 0.069,0.196 0,0.068 -0.01,0.121 -0.03,0.16 -0.02,0.039 -0.05,0.069 -0.089,0.091 -0.039,0.021 -0.082,0.032 -0.127,0.032 -0.074,0 -0.134,-0.024 -0.18,-0.071 -0.045,-0.047 -0.068,-0.116 -0.068,-0.204 z m 0.091,0 c 0,0.067 0.015,0.118 0.045,0.151 0.029,0.034 0.066,0.051 0.112,0.051 0.044,0 0.081,-0.017 0.111,-0.051 0.029,-0.034 0.044,-0.085 0.044,-0.154 0,-0.065 -0.015,-0.115 -0.045,-0.148 -0.03,-0.034 -0.066,-0.05 -0.11,-0.05 -0.046,0 -0.083,0.016 -0.112,0.05 -0.03,0.033 -0.045,0.084 -0.045,0.151 z"
   id="path79" />
    </g>
   </g>
   
  </g>
 </g>
</svg>
